<mxfile host="app.diagrams.net" modified="2021-02-03T23:46:34.014Z" agent="5.0 (Windows NT 10.0; Win64; x64) AppleWebKit/537.36 (KHTML, like Gecko) Chrome/88.0.4324.96 Safari/537.36 Edg/88.0.705.56" etag="RUQC05g-B5bTPCo8vGGq" version="14.2.9" type="github">
  <diagram id="ztEQwS2g8ExZ2PXVNCZ4" name="Page-1">
    <mxGraphModel dx="868" dy="1651" grid="1" gridSize="10" guides="1" tooltips="1" connect="1" arrows="1" fold="1" page="1" pageScale="1" pageWidth="827" pageHeight="1169" math="0" shadow="0">
      <root>
        <mxCell id="0" />
        <mxCell id="1" parent="0" />
        <mxCell id="7o2EqjtBcQtvEjyH3w9C-58" value="" style="whiteSpace=wrap;html=1;aspect=fixed;fillColor=#d0cee2;strokeColor=#56517e;" parent="1" vertex="1">
          <mxGeometry x="328.75" y="-1160" width="420" height="420" as="geometry" />
        </mxCell>
        <mxCell id="7o2EqjtBcQtvEjyH3w9C-16" value="" style="rounded=0;whiteSpace=wrap;html=1;fillColor=#dae8fc;strokeColor=#6c8ebf;" parent="1" vertex="1">
          <mxGeometry x="5" y="-740" width="465" height="390" as="geometry" />
        </mxCell>
        <mxCell id="7o2EqjtBcQtvEjyH3w9C-1" value="0" style="ellipse;html=1;shape=startState;fillColor=#000000;strokeColor=#ff0000;" parent="1" vertex="1">
          <mxGeometry x="55" y="-1160" width="30" height="30" as="geometry" />
        </mxCell>
        <mxCell id="7o2EqjtBcQtvEjyH3w9C-2" value="" style="edgeStyle=orthogonalEdgeStyle;html=1;verticalAlign=bottom;endArrow=open;endSize=8;strokeColor=#ff0000;" parent="1" source="7o2EqjtBcQtvEjyH3w9C-1" edge="1">
          <mxGeometry relative="1" as="geometry">
            <mxPoint x="70" y="-1070" as="targetPoint" />
          </mxGeometry>
        </mxCell>
        <mxCell id="7o2EqjtBcQtvEjyH3w9C-8" value="" style="edgeStyle=orthogonalEdgeStyle;rounded=0;orthogonalLoop=1;jettySize=auto;html=1;" parent="1" source="7o2EqjtBcQtvEjyH3w9C-3" target="7o2EqjtBcQtvEjyH3w9C-4" edge="1">
          <mxGeometry relative="1" as="geometry">
            <Array as="points">
              <mxPoint x="75" y="-812.5" />
              <mxPoint x="75" y="-812.5" />
            </Array>
          </mxGeometry>
        </mxCell>
        <mxCell id="7o2EqjtBcQtvEjyH3w9C-14" style="edgeStyle=orthogonalEdgeStyle;rounded=0;orthogonalLoop=1;jettySize=auto;html=1;entryX=0;entryY=0.5;entryDx=0;entryDy=0;" parent="1" source="7o2EqjtBcQtvEjyH3w9C-3" target="7o2EqjtBcQtvEjyH3w9C-11" edge="1">
          <mxGeometry relative="1" as="geometry">
            <Array as="points">
              <mxPoint x="300" y="-1045" />
              <mxPoint x="300" y="-1024" />
            </Array>
          </mxGeometry>
        </mxCell>
        <mxCell id="7o2EqjtBcQtvEjyH3w9C-3" value="Coleta informações&amp;nbsp;&lt;br&gt;do pedido" style="html=1;" parent="1" vertex="1">
          <mxGeometry x="15" y="-1070" width="110" height="50" as="geometry" />
        </mxCell>
        <mxCell id="7o2EqjtBcQtvEjyH3w9C-4" value="Tem bebida ?" style="rhombus;whiteSpace=wrap;html=1;fillColor=#ffffc0;strokeColor=#ff0000;" parent="1" vertex="1">
          <mxGeometry x="20" y="-700" width="120" height="80" as="geometry" />
        </mxCell>
        <mxCell id="7o2EqjtBcQtvEjyH3w9C-5" value="no" style="edgeStyle=orthogonalEdgeStyle;html=1;align=left;verticalAlign=bottom;endArrow=open;endSize=8;strokeColor=#ff0000;entryX=0.5;entryY=0;entryDx=0;entryDy=0;" parent="1" source="7o2EqjtBcQtvEjyH3w9C-4" target="7o2EqjtBcQtvEjyH3w9C-10" edge="1">
          <mxGeometry x="-1" relative="1" as="geometry">
            <mxPoint x="220" y="-692.5" as="targetPoint" />
          </mxGeometry>
        </mxCell>
        <mxCell id="7o2EqjtBcQtvEjyH3w9C-6" value="yes" style="edgeStyle=orthogonalEdgeStyle;html=1;align=left;verticalAlign=top;endArrow=open;endSize=8;strokeColor=#ff0000;entryX=0.5;entryY=0;entryDx=0;entryDy=0;" parent="1" source="7o2EqjtBcQtvEjyH3w9C-4" target="7o2EqjtBcQtvEjyH3w9C-9" edge="1">
          <mxGeometry x="-1" y="-20" relative="1" as="geometry">
            <mxPoint x="120" y="-682.5" as="targetPoint" />
            <Array as="points" />
            <mxPoint x="20" y="-20" as="offset" />
          </mxGeometry>
        </mxCell>
        <mxCell id="7o2EqjtBcQtvEjyH3w9C-20" value="" style="edgeStyle=orthogonalEdgeStyle;rounded=0;orthogonalLoop=1;jettySize=auto;html=1;" parent="1" source="7o2EqjtBcQtvEjyH3w9C-9" target="7o2EqjtBcQtvEjyH3w9C-19" edge="1">
          <mxGeometry relative="1" as="geometry" />
        </mxCell>
        <mxCell id="7o2EqjtBcQtvEjyH3w9C-9" value="Exibe na tela&amp;nbsp;&lt;br&gt;da copa" style="html=1;" parent="1" vertex="1">
          <mxGeometry x="25" y="-570" width="110" height="50" as="geometry" />
        </mxCell>
        <mxCell id="7o2EqjtBcQtvEjyH3w9C-10" value="Fim" style="ellipse;html=1;shape=endState;fillColor=#000000;strokeColor=#ff0000;" parent="1" vertex="1">
          <mxGeometry x="205" y="-632.5" width="30" height="30" as="geometry" />
        </mxCell>
        <mxCell id="7o2EqjtBcQtvEjyH3w9C-41" style="edgeStyle=orthogonalEdgeStyle;rounded=0;orthogonalLoop=1;jettySize=auto;html=1;exitX=0.5;exitY=0;exitDx=0;exitDy=0;entryX=0;entryY=0.5;entryDx=0;entryDy=0;" parent="1" source="7o2EqjtBcQtvEjyH3w9C-11" target="7o2EqjtBcQtvEjyH3w9C-43" edge="1">
          <mxGeometry relative="1" as="geometry">
            <mxPoint x="403" y="-1130" as="targetPoint" />
          </mxGeometry>
        </mxCell>
        <mxCell id="7o2EqjtBcQtvEjyH3w9C-45" style="edgeStyle=orthogonalEdgeStyle;rounded=0;orthogonalLoop=1;jettySize=auto;html=1;entryX=0.5;entryY=0;entryDx=0;entryDy=0;" parent="1" source="7o2EqjtBcQtvEjyH3w9C-11" target="7o2EqjtBcQtvEjyH3w9C-44" edge="1">
          <mxGeometry relative="1" as="geometry" />
        </mxCell>
        <mxCell id="7o2EqjtBcQtvEjyH3w9C-11" value="Tem comida ?" style="rhombus;whiteSpace=wrap;html=1;fillColor=#ffffc0;strokeColor=#ff0000;" parent="1" vertex="1">
          <mxGeometry x="335" y="-1056.5" width="135" height="65" as="geometry" />
        </mxCell>
        <mxCell id="7o2EqjtBcQtvEjyH3w9C-15" value="&lt;h1&gt;Gerenciamento&amp;nbsp;&lt;br&gt;da&amp;nbsp;Copa&lt;/h1&gt;" style="text;html=1;strokeColor=#A50040;fillColor=#d80073;align=center;verticalAlign=middle;whiteSpace=wrap;rounded=0;fontColor=#ffffff;" parent="1" vertex="1">
          <mxGeometry x="264" y="-730" width="190" height="70" as="geometry" />
        </mxCell>
        <mxCell id="7o2EqjtBcQtvEjyH3w9C-22" value="" style="edgeStyle=orthogonalEdgeStyle;rounded=0;orthogonalLoop=1;jettySize=auto;html=1;" parent="1" source="7o2EqjtBcQtvEjyH3w9C-19" target="7o2EqjtBcQtvEjyH3w9C-21" edge="1">
          <mxGeometry relative="1" as="geometry" />
        </mxCell>
        <mxCell id="7o2EqjtBcQtvEjyH3w9C-19" value="Bebida pronta" style="html=1;" parent="1" vertex="1">
          <mxGeometry x="25" y="-490" width="110" height="50" as="geometry" />
        </mxCell>
        <mxCell id="7o2EqjtBcQtvEjyH3w9C-24" value="" style="edgeStyle=orthogonalEdgeStyle;rounded=0;orthogonalLoop=1;jettySize=auto;html=1;" parent="1" source="7o2EqjtBcQtvEjyH3w9C-21" target="7o2EqjtBcQtvEjyH3w9C-23" edge="1">
          <mxGeometry relative="1" as="geometry" />
        </mxCell>
        <mxCell id="7o2EqjtBcQtvEjyH3w9C-21" value="Exibe na tela&amp;nbsp;&lt;br&gt;go garçom" style="html=1;" parent="1" vertex="1">
          <mxGeometry x="25" y="-420" width="110" height="50" as="geometry" />
        </mxCell>
        <mxCell id="7o2EqjtBcQtvEjyH3w9C-23" value="Garçom entrega" style="html=1;" parent="1" vertex="1">
          <mxGeometry x="160" y="-420" width="110" height="50" as="geometry" />
        </mxCell>
        <mxCell id="7o2EqjtBcQtvEjyH3w9C-43" value="" style="ellipse;html=1;shape=endState;fillColor=#000000;strokeColor=#ff0000;" parent="1" vertex="1">
          <mxGeometry x="510" y="-1130" width="30" height="30" as="geometry" />
        </mxCell>
        <mxCell id="7o2EqjtBcQtvEjyH3w9C-50" style="edgeStyle=orthogonalEdgeStyle;rounded=0;orthogonalLoop=1;jettySize=auto;html=1;exitX=0.5;exitY=1;exitDx=0;exitDy=0;entryX=0.5;entryY=0;entryDx=0;entryDy=0;" parent="1" source="7o2EqjtBcQtvEjyH3w9C-44" target="7o2EqjtBcQtvEjyH3w9C-46" edge="1">
          <mxGeometry relative="1" as="geometry" />
        </mxCell>
        <mxCell id="7o2EqjtBcQtvEjyH3w9C-44" value="Exibe na tela&amp;nbsp;&lt;br&gt;da cozinha" style="html=1;" parent="1" vertex="1">
          <mxGeometry x="347" y="-960" width="110" height="50" as="geometry" />
        </mxCell>
        <mxCell id="7o2EqjtBcQtvEjyH3w9C-51" value="" style="edgeStyle=orthogonalEdgeStyle;rounded=0;orthogonalLoop=1;jettySize=auto;html=1;" parent="1" source="7o2EqjtBcQtvEjyH3w9C-46" target="7o2EqjtBcQtvEjyH3w9C-47" edge="1">
          <mxGeometry relative="1" as="geometry" />
        </mxCell>
        <mxCell id="7o2EqjtBcQtvEjyH3w9C-46" value="Bebida pronta" style="html=1;" parent="1" vertex="1">
          <mxGeometry x="347" y="-880" width="110" height="50" as="geometry" />
        </mxCell>
        <mxCell id="7o2EqjtBcQtvEjyH3w9C-52" value="" style="edgeStyle=orthogonalEdgeStyle;rounded=0;orthogonalLoop=1;jettySize=auto;html=1;" parent="1" source="7o2EqjtBcQtvEjyH3w9C-47" target="7o2EqjtBcQtvEjyH3w9C-48" edge="1">
          <mxGeometry relative="1" as="geometry" />
        </mxCell>
        <mxCell id="7o2EqjtBcQtvEjyH3w9C-47" value="Exibe na tela&amp;nbsp;&lt;br&gt;go garçom" style="html=1;" parent="1" vertex="1">
          <mxGeometry x="347" y="-810" width="110" height="50" as="geometry" />
        </mxCell>
        <mxCell id="7o2EqjtBcQtvEjyH3w9C-48" value="Garçom entrega" style="html=1;" parent="1" vertex="1">
          <mxGeometry x="482" y="-810" width="110" height="50" as="geometry" />
        </mxCell>
        <mxCell id="7o2EqjtBcQtvEjyH3w9C-55" value="Fim" style="text;align=center;fontStyle=1;verticalAlign=middle;spacingLeft=3;spacingRight=3;strokeColor=none;rotatable=0;points=[[0,0.5],[1,0.5]];portConstraint=eastwest;" parent="1" vertex="1">
          <mxGeometry x="482" y="-1150" width="80" height="26" as="geometry" />
        </mxCell>
        <mxCell id="7o2EqjtBcQtvEjyH3w9C-56" value="Inicio" style="text;align=center;fontStyle=1;verticalAlign=middle;spacingLeft=3;spacingRight=3;strokeColor=none;rotatable=0;points=[[0,0.5],[1,0.5]];portConstraint=eastwest;" parent="1" vertex="1">
          <mxGeometry x="85" y="-1158" width="80" height="26" as="geometry" />
        </mxCell>
        <mxCell id="7o2EqjtBcQtvEjyH3w9C-57" value="Fim" style="text;align=center;fontStyle=1;verticalAlign=middle;spacingLeft=3;spacingRight=3;strokeColor=none;rotatable=0;points=[[0,0.5],[1,0.5]];portConstraint=eastwest;" parent="1" vertex="1">
          <mxGeometry x="235" y="-628" width="80" height="26" as="geometry" />
        </mxCell>
        <mxCell id="7o2EqjtBcQtvEjyH3w9C-62" value="" style="endArrow=classic;html=1;exitX=1;exitY=0.5;exitDx=0;exitDy=0;entryX=0.5;entryY=1;entryDx=0;entryDy=0;" parent="1" source="7o2EqjtBcQtvEjyH3w9C-48" target="7o2EqjtBcQtvEjyH3w9C-43" edge="1">
          <mxGeometry width="50" height="50" relative="1" as="geometry">
            <mxPoint x="681" y="-810" as="sourcePoint" />
            <mxPoint x="520" y="-950" as="targetPoint" />
            <Array as="points">
              <mxPoint x="681" y="-970" />
              <mxPoint x="525" y="-970" />
            </Array>
          </mxGeometry>
        </mxCell>
        <mxCell id="7o2EqjtBcQtvEjyH3w9C-63" value="&lt;h1&gt;Gerenciamento da cozinha&lt;/h1&gt;" style="text;html=1;strokeColor=#006EAF;fillColor=#1ba1e2;align=center;verticalAlign=middle;whiteSpace=wrap;rounded=0;fontColor=#ffffff;" parent="1" vertex="1">
          <mxGeometry x="548.75" y="-1155" width="200" height="80" as="geometry" />
        </mxCell>
        <mxCell id="tbjx8SG5ILywKcBt4vIl-4" value="" style="endArrow=classic;html=1;entryX=0.5;entryY=1;entryDx=0;entryDy=0;exitX=1;exitY=0.5;exitDx=0;exitDy=0;" edge="1" parent="1" source="7o2EqjtBcQtvEjyH3w9C-23" target="7o2EqjtBcQtvEjyH3w9C-10">
          <mxGeometry width="50" height="50" relative="1" as="geometry">
            <mxPoint x="390" y="-520" as="sourcePoint" />
            <mxPoint x="440" y="-570" as="targetPoint" />
            <Array as="points">
              <mxPoint x="340" y="-510" />
            </Array>
          </mxGeometry>
        </mxCell>
      </root>
    </mxGraphModel>
  </diagram>
</mxfile>
